name processed_emg_signals
nRows=91
nColumns=7
 
endheader
time	LGLTMED	LRF	LADDLONG	LST	LTA	LGM
2.015	0.945701264053908	0.3536430817764642	0.2496989141695424	0.4227833409878632	0.4272128970251576	0.6673025973782662
2.016	0.9463231554992187	0.3604857343361702	0.2534638846051305	0.417655681706448	0.4280140994851757	0.6615645667035548
2.017	0.946717060361118	0.3673623678826515	0.2572988185185132	0.4126247093457877	0.4287949615283197	0.6558772662310545
2.0180000000000002	0.9468831206338574	0.3742686942049923	0.2612023598952625	0.4076898800182991	0.4295567007106857	0.650244453869578
2.019	0.9468216568261764	0.3812004150312089	0.2651730657630817	0.4028504811560656	0.4303005963002562	0.644669759976063
2.02	0.9465331665165831	0.3881532243080877	0.2692094062634967	0.3981056370050177	0.4310279868655771	0.6391566855476806
2.021	0.9460183227153692	0.395122810422074	0.2733097648099934	0.39345431439605	0.4317402676601713	0.6337086005631176
2.0220000000000002	0.9452779720533956	0.4021048583616656	0.2774724383341961	0.3888953287807342	0.4324388878105696	0.6283287424621811
2.023	0.9443131328162296	0.4090950518215516	0.2816956376214791	0.3844273505187908	0.4331253473157517	0.6230202147517352
2.024	0.9431249928403564	0.4160890752488062	0.2859774877375448	0.3800489114040056	0.4338011938657716	0.6177859857252599
2.025	0.9417149072865242	0.4230826158312005	0.2903160285469209	0.3757584114147212	0.4344680194875888	0.6126288872835385
2.0260000000000002	0.940084396303348	0.4300713654279204	0.2947092153241373	0.3715541256749548	0.4351274570264752	0.6075516138451007
2.027	0.938235142592614	0.4370510224426909	0.2991549194577966	0.3674342116117365	0.4357811764718372	0.6025567213370603
2.028	0.9361689888857968	0.4440172936396367	0.3036509292473358	0.3633967162941942	0.4364308811367843	0.5976466262599482
2.029	0.9338879353394216	0.450965895902503	0.3081949507917459	0.3594395839392773	0.4370783037013676	0.5928236048240303
2.0300000000000002	0.9313941368553484	0.4578925579391133	0.3127846089691128	0.3555606635688033	0.4377252021297454	0.5880897921588738
2.031	0.9286899003309792	0.4647930219345002	0.3174174485056176	0.3517577168021011	0.4383733554719243	0.5834471816016261
2.032	0.9257776818435955	0.4716630451583165	0.3220909351326697	0.3480284257682789	0.4390245595608795	0.5788976240718382
2.033	0.9226600837721372	0.4784984015340782	0.3268024568309144	0.3443704011215597	0.4396806226162029	0.5744428275414957
2.0340000000000003	0.919339851858713	0.4852948831795168	0.3315493251601567	0.3407811901425137	0.4403433607655181	0.5700843566086722
2.035	0.915819872211276	0.4920483019285239	0.3363287766745811	0.3372582849071289	0.4410145934951358	0.5658236321827204
2.036	0.9121031682481424	0.4987544908460685	0.3411379744232181	0.3337991305045412	0.4416961390409835	0.5616619312884545
2.037	0.9081928975841292	0.5054093057481461	0.3459740095367153	0.3304011332830609	0.4423898097305034	0.5576003869962404
2.0380000000000003	0.90409234885644	0.5120086267394628	0.3508339029025558	0.3270616691030095	0.4430974072857895	0.5536399884841436
2.039	0.8998049384864317	0.5185483597815957	0.3557146069325337	0.3237780915735933	0.443820718098509	0.5497815812375235
2.04	0.8953342073713085	0.5250244383049429	0.3606130074273054	0.3205477402499466	0.4445615084877228	0.5460258673908576
2.041	0.8906838174981752	0.5314328248775014	0.365525925543833	0.3173679487652918	0.4453215199525199	0.5423734062163624
2.0420000000000003	0.8858575484722527	0.5377695129432328	0.370450119871926	0.314236052872235	0.4461024644320647	0.5388246147635019
2.043	0.8808592939512169	0.5440305286417526	0.3753822886263666	0.3111493983663224	0.4469060195860945	0.5353797686529327
2.044	0.8756930579782903	0.5502119327201757	0.380319071961193	0.3081053488641889	0.447733824108784	0.5320390030273631
2.045	0.8703629512069955	0.5563098225473004	0.3852570544127207	0.305101293407923	0.4485874730881409	0.528802313660628
2.0460000000000003	0.8648731870103269	0.5623203342398406	0.3901927674775037	0.3021346538664656	0.4494685134220859	0.525669558225244
2.047	0.859228077467247	0.5682396449095306	0.3951226923312764	0.299202892104181	0.4503784393012621	0.5226404577179303
2.048	0.85343202922034	0.5740639750396868	0.4000432626946815	0.2963035168866568	0.4513186877676032	0.5197145980421589
2.049	0.8474895391999108	0.5797895909987116	0.4049508678512458	0.2934340904940945	0.45229063435721	0.5168914317463232
2.05	0.8414051902112911	0.5854128076973334	0.4098418558227205	0.2905922350133504	0.4532955888357512	0.514170279915839
2.051	0.8351836463833294	0.5909299913951493	0.4147125367058676	0.2877756382803835	0.4543347910351931	0.5115503342175075
2.052	0.8288296484773169	0.596337562660393	0.4195591861740676	0.2849820594455958	0.4554094068016677	0.5090306590951077
2.053	0.8223480090568072	0.6016319994855551	0.4243780491460312	0.2822093341358975	0.456520524065704	0.506610194116112
2.054	0.8157436075195835	0.6068098405598485	0.4291653436227713	0.2794553791901362	0.4576691490476224	0.5042877564705663
2.055	0.8090213849937039	0.6118676886980257	0.4339172646931382	0.2767181969484935	0.4588562026118519	0.5020620436238041
2.056	0.8021863391002133	0.6168022144237529	0.4386299887068653	0.2739958790816233	0.4600825167840592	0.4999316361247527
2.057	0.7952435185857468	0.6216101597042017	0.4432996776130224	0.2712866099509435	0.4613488314445692	0.497895000571102
2.058	0.7881980178285151	0.6262883418310861	0.4479224834601225	0.2685886694974005	0.4626557912104823	0.4959504927318441
2.059	0.7810549712210269	0.6308336574416378	0.4524945530530485	0.2659004356614169	0.4640039425179196	0.4940963608269884
2.06	0.7738195474328555	0.6352430866717548	0.4570120327605967	0.2632203863412213	0.4653937309146655	0.4923307489634094
2.061	0.7664969435571243	0.6395136974323998	0.4614710734665333	0.2605471009009736	0.4668254985723547	0.4906517007249639
2.062	0.7590923791449099	0.6436426497995636	0.4658678356563559	0.2578792612434598	0.4682994820259814	0.4890571629140259
2.063	0.7516110901325274	0.6476272005074816	0.470198494631227	0.2552156524648268	0.4698158101472788	0.4875449894407508
2.064	0.7440583226678161	0.651464707534	0.4744592458400695	0.252555163110613	0.4713745023573595	0.4861129453554261
2.065	0.7364393268432596	0.6551526347655358	0.4786463103203188	0.2498967850536821	0.4729754670830179	0.484758711018336
2.066	0.7287593503452622	0.6586885567277465	0.4827559402372445	0.2472396130157015	0.4746185004602171	0.4834798864005476
2.067	0.7210236320298817	0.6620701633659719	0.4867844245115511	0.2445828437543039	0.4763032852870936	0.4822739955079039
2.068	0.7132373954355988	0.6652952648581222	0.4907280945241132	0.2419257749380332	0.478029390227802	0.481138490919534
2.069	0.7054058422441137	0.6683617964413191	0.4945833298862245	0.2392678037308444	0.4797962692674911	0.4800707584314107
2.07	0.6975341457009355	0.6712678232323743	0.4983465642627246	0.2366084251074224	0.4816032614180282	0.4790681217951386
2.071	0.6896274440085773	0.6740115450212171	0.5020142912344331	0.2339472299201257	0.483449590673966	0.4781278475422557
2.072	0.6816908337063041	0.67659130101509	0.5055830701852163	0.2312839027378136	0.4853343662180437	0.4772471498846022
2.073	0.6737293630514278	0.6790055745105141	0.5090495321978438	0.2286182194761774	0.487256582875406	0.4764231956818719
2.074	0.6657480254188524	0.681252997469098	0.5124103859417993	0.2259500448388116	0.4892151218151613	0.4756531094682782
2.075	0.6577517527378792	0.6833323549723749	0.5156624235355682	0.2232793295875566	0.4912087514972236	0.474933978531085
2.076	0.6497454089878012	0.6852425895297111	0.5188025263650525	0.220606107660212	0.4932361288618796	0.4742628580344714
2.077	0.6417337837758762	0.686982805212516	0.5218276708390982	0.2179304931528972	0.495295800759207	0.4736367761821251
2.078	0.6337215860228476	0.6885522715877818	0.5247349340622235	0.2152526771838397	0.4973862056153159	0.4730527394114563
2.079	0.6257134377819474	0.689950427424118	0.5275214994043821	0.2125729246545459	0.4995056753318094	0.4725077376113589
2.08	0.6177138682173243	0.6911768841439676	0.5301846619476214	0.2098915709238112	0.5016524374143406	0.4719987493543993
2.081	0.6097273077668358	0.6922314289955275	0.5327218337894674	0.2072090184091584	0.5038246173253825	0.4715227471334726
2.082	0.601758082512567	0.6931140279181052	0.53513054918315	0.2045257331297613	0.506020241055544	0.4710767025921528
2.083	0.5938104087805688	0.6938248280751734	0.5374084694945769	0.2018422412041038	0.5082372379069191	0.4706575917371597
2.084	0.5858883879895596	0.6943641600304813	0.5395533879564987	0.1991591253150343	0.5104734434809984	0.4702624001205733
2.085	0.5779960017666271	0.6947325395440529	0.5415632342011135	0.1964770211541386	0.5127266028629194	0.4698881279783736
2.086	0.570137107346551	0.6949306689672131	0.5434360785533083	0.193796613856717	0.514994373993097	0.4695317953109387
2.087	0.5623154332700266	0.6949594382191807	0.5451701360685449	0.19111863443809	0.5172743312172435	0.4691904468903621
2.088	0.5545345753946921	0.6948199253318279	0.5467637703016408	0.1884438562412378	0.5195639690059972	0.4688611571791609
2.089	0.546797993231603	0.6945133965534127	0.5482154967954702	0.18577309140534	0.5218607058359714	0.4685410351450748
2.09	0.5391090066183969	0.6940413060053954	0.5495239862802698	0.1831071873641371	0.5241618882243713	0.4682272289574369
2.091	0.5314707927392264	0.6934052948890957	0.550688067575487	0.180447023382342	0.5264647949089898	0.4679169305515886
2.092	0.5238863835000607	0.692607190241369	0.5517067301866805	0.1777935071378217	0.5287666411647647	0.4676073800490966
2.093	0.5163586632665563	0.6916490032400282	0.5525791265912589	0.1751475713565669	0.5310645832475741	0.4672958700226282
2.094	0.5088903669701358	0.6905329270610523	0.5533045742078991	0.172510170506846	0.5333557229559596	0.4669797495948874
2.095	0.5014840785864365	0.6892613342910714	0.5538825570456294	0.1698822775585225	0.5356371123022177	0.4666564283608186
2.096	0.4941422299889305	0.6878367739003162	0.554312727029272	0.1672648808128602	0.5379057582849964	0.4663233801220082
2.097	0.4868671001790358	0.6862619677834625	0.5545949049989978	0.1646589808077582	0.5401586277556893	0.4659781464222853
2.098	0.479660814892532	0.6845398068785875	0.5547290813825804	0.1620655873029051	0.5423926523707353	0.465618339874534
2.099	0.4725253465804134	0.6826733468770815	0.5547154165399355	0.1594857163489884	0.5446047336217161	0.4652416472704745
2.1	0.4654625147608024	0.6806658035398294	0.554554240780819	0.1569203874447751	0.5467917479351764	0.4648458324672277
2.101	0.4584739867371116	0.6785205476357943	0.5542460540581163	0.1543706207855335	0.5489505518346486	0.4644287390467074
2.102	0.451561278676427	0.6762410995188299	0.5537915253408453	0.1518374346059738	0.5510779871580034	0.463988292745943
2.103	0.4447257570408131	0.6738311233578715	0.5531914916720907	0.1493218426203213	0.5531708863242754	0.4635225036581628
2.104	0.4379686403633828	0.6712944210349594	0.5524469569177545	0.1468248515618703	0.5552260776446005	0.4630294682062778
2.105	0.4312910013601578	0.6686349257252442	0.5515590902114988	0.1443474588237158	0.5572403906721465	0.4625073708917621
